<?xml version="1.0" encoding="utf-8"?>
<!-- Svg Vector Icons : http://www.onlinewebfonts.com/icon -->
<!DOCTYPE svg PUBLIC "-//W3C//DTD SVG 1.1//EN" "http://www.w3.org/Graphics/SVG/1.1/DTD/svg11.dtd">
<svg fill="white" version="1.1" xmlns="http://www.w3.org/2000/svg" xmlns:xlink="http://www.w3.org/1999/xlink" x="0px" y="0px" viewBox="0 0 1000 1000" enable-background="new 0 0 1000 1000" xml:space="preserve">
<metadata> Svg Vector Icons : http://www.onlinewebfonts.com/icon </metadata>
<g><path d="M922.9,136.3H77.1C40.2,136.3,10,166.8,10,204V796c0,37.2,30.2,67.7,67.1,67.7h845.7c36.9,0,67.1-30.4,67.1-67.7V204C990,166.8,959.8,136.3,922.9,136.3z M881.7,192.6l-367,315c-12.5,12.7-12.5,12.7-25.1,0l-366.9-315H881.7L881.7,192.6z M934.9,776.5L698.5,523.1c-13.1-13.2-34.3-13.2-47.5,0c-13.1,13.2-13.1,34.6,0,47.8L864.9,808H143.8l213.9-237.1c13.1-13.2,13.1-34.6,0-47.8c-13.1-13.2-34.3-13.2-47.5,0L66,780.7v-540l376.2,314.8c19,19.1,35.2,33.3,62.1,33.3c26.9,0,39-14.2,57.9-33.3l372.6-314.8V776.5L934.9,776.5z"/></g>
</svg>
