<?xml version="1.0" encoding="UTF-8"?>
<svg width="780px" height="259px" viewBox="0 0 780 259" version="1.1" xmlns="http://www.w3.org/2000/svg" xmlns:xlink="http://www.w3.org/1999/xlink">
    <!-- Generator: Sketch 46.2 (44496) - http://www.bohemiancoding.com/sketch -->
    <title>bollenFooter</title>
    <desc>Created with Sketch.</desc>
    <defs>
        <filter x="0.0%" y="0.0%" width="100.0%" height="100.0%" filterUnits="objectBoundingBox" id="filter-1">
            <feGaussianBlur stdDeviation="0" in="SourceGraphic"></feGaussianBlur>
        </filter>
        <filter x="0.0%" y="0.0%" width="100.0%" height="100.0%" filterUnits="objectBoundingBox" id="filter-2">
            <feGaussianBlur stdDeviation="0" in="SourceGraphic"></feGaussianBlur>
        </filter>
        <filter x="-1.1%" y="-3.6%" width="102.3%" height="107.3%" filterUnits="objectBoundingBox" id="filter-3">
            <feGaussianBlur stdDeviation="2.38002232" in="SourceGraphic"></feGaussianBlur>
        </filter>
    </defs>
    <g id="Symbols" stroke="none" stroke-width="1" fill="none" fill-rule="evenodd" opacity="0.119999997">
        <g id="Footer" transform="translate(-356.000000, -54.000000)">
            <g id="Group-5">
                <g id="bollenFooter" transform="translate(356.000000, 54.000000)">
                    <path d="M467.219877,61.9469598 C481.526533,61.9469598 490.110527,53.0487375 490.110527,39.3758594 C490.110527,28.9584284 483.727557,23.3156533 472.942539,23.3156533 C458.635883,23.3156533 450.271992,31.779816 450.271992,45.6697239 C450.271992,55.8701251 456.434859,61.9469598 467.219877,61.9469598 Z" id="cirkel" fill="#E6EAEB"></path>
                    <path d="M203.76397,90.9204398 C210.700531,90.9204398 214.862467,86.4713286 214.862467,79.6348895 C214.862467,74.426174 211.767694,71.6047865 206.538595,71.6047865 C199.602034,71.6047865 195.546814,75.8368678 195.546814,82.7818218 C195.546814,87.8820224 198.534871,90.9204398 203.76397,90.9204398 Z" id="cirkel" fill="#E6EAEB"></path>
                    <path d="M734.757682,216.472186 C762.937459,216.472186 779.845326,198.675742 779.845326,171.329985 C779.845326,150.495123 767.27281,139.209573 746.029593,139.209573 C717.849816,139.209573 701.375484,156.137898 701.375484,183.917714 C701.375484,204.318517 713.514465,216.472186 734.757682,216.472186 Z" id="cirkel" fill="#E6EAEB" filter="url(#filter-1)"></path>
                    <path d="M33.3821977,77.2626131 C61.5619751,77.2626131 78.4698415,59.4661685 78.4698415,32.1204122 C78.4698415,11.2855502 65.8973254,0 44.6541087,0 C16.4743314,0 0,16.9283253 0,44.7081413 C0,65.1089436 12.138981,77.2626131 33.3821977,77.2626131 Z" id="cirkel" fill="#E6EAEB" filter="url(#filter-2)"></path>
                    <path d="M15.7211475,259 L36.1926745,35.3879366 L208.826326,78.8481565 L235.699805,259 L15.7211475,259 Z M496.430803,259 L476.831015,37.8023932 L738.799563,166.975825 L724.972096,259 L496.430803,259 Z" id="Combined-Shape" stroke="#E6EAEB" stroke-width="2" filter="url(#filter-3)"></path>
                    <path d="M172.106586,259 L479.245472,43.8385349 L547.09722,259 L661.276316,259 L736.385106,171.804738 L205.204641,78.8481565 L470.794873,46.2529916 L283.254856,259 L199.275575,259 L45.8505011,42.6313066 L61.7340104,259 L172.106586,259 Z" id="Combined-Shape" stroke="#E6EAEB" stroke-width="4" opacity="0.570029438"></path>
                </g>
            </g>
        </g>
    </g>
</svg>