<?xml version="1.0" encoding="utf-8"?>
<!-- Generator: Adobe Illustrator 21.1.0, SVG Export Plug-In . SVG Version: 6.00 Build 0)  -->
<svg version="1.1" id="Layer_1" xmlns="http://www.w3.org/2000/svg" xmlns:xlink="http://www.w3.org/1999/xlink" x="0px" y="0px"
	 viewBox="0 0 32 32" style="enable-background:new 0 0 32 32;" xml:space="preserve" fill="white">
<g id="surface1">
	<path d="M17,2c-1.4,0-2.5,1-2.9,2.2C13.8,4.1,13.4,4,13,4c-1.6,0-3,1.4-3,3v10.8l-0.9-0.9c-1.2-1.2-3.1-1.2-4.2,0s-1.2,3.1,0,4.2
		l6.8,6.8c1.2,1.2,2.8,2.1,4.7,2.1H21c3.9,0,7-3.1,7-7V11c0-1.6-1.4-3-3-3c-0.4,0-0.7,0.1-1,0.2V7c0-1.6-1.4-3-3-3
		c-0.4,0-0.8,0.1-1.1,0.2C19.5,3,18.4,2,17,2z M17,4c0.6,0,1,0.4,1,1v10h2V7c0-0.6,0.4-1,1-1s1,0.4,1,1v8h2v-4c0-0.6,0.4-1,1-1
		s1,0.4,1,1v12c0,2.8-2.2,5-5,5h-4.6c-1.3,0-2.4-0.6-3.3-1.5l-6.8-6.8c-0.4-0.4-0.4-1,0-1.4l0.1,0c0.4-0.3,1-0.4,1.4,0l2.6,2.6
		l1.7,1.7V7c0-0.6,0.4-1,1-1s1,0.4,1,1v8h2V5C16,4.4,16.4,4,17,4z M17,18c-1.1,0-2,0.9-2,2c0,1.9,4,5,4,5s4-2.8,4-5c0-1.1-0.9-2-2-2
		s-2,0.9-2,2C19,18.9,18.1,18,17,18z"/>
</g>
</svg>
