<?xml version="1.0" encoding="utf-8"?>
<!-- Generator: Adobe Illustrator 21.1.0, SVG Export Plug-In . SVG Version: 6.00 Build 0)  -->
<svg version="1.1" id="Layer_1" xmlns="http://www.w3.org/2000/svg" xmlns:xlink="http://www.w3.org/1999/xlink" x="0px" y="0px"
	 viewBox="0 0 32 32" style="enable-background:new 0 0 32 32;" xml:space="preserve" fill="rgba(0, 0, 0, 0.2)">
<g id="surface1">
	<path d="M15,3C8.9,3,4,7.9,4,14c0,2.2,0.8,3.9,1.6,5.6S7,22.6,7,24.1V29h2v-4.9c0-2.1-0.8-3.8-1.6-5.4S6,15.6,6,14c0-5,4-9,9-9
		c3.8,0,5.8,1.6,7.1,3.2s1.5,3.2,1.5,3.2l0,0.1l0.1,0.1c0,0,2.4,4.8,2.7,5.4c0.1,0.1,0.1,0.2,0.1,0.3s0,0,0,0
		c-0.6,0.2-1.7,0.4-1.7,0.4L24,18v3c0,0.7-0.4,1.4-1,2s-1.4,1-2,1h-2v5h2v-3c1.3,0,2.6-0.7,3.5-1.6S26,22.3,26,21v-1.5
		c0.4-0.1,0.6-0.2,1-0.2c0.7-0.2,1.2-0.8,1.4-1.4s0.1-1.2-0.2-1.8c-0.3-0.6-2.7-5.4-2.7-5.4h0c-0.1-0.4-0.5-2-1.8-3.8
		C22.1,5,19.4,3,15,3z M15,10c-2.2,0-4,1.8-4,4s2,3,2,7h1c0,0.6,0.4,1,1,1s1-0.4,1-1h1c0-4,2-4.8,2-7S17.2,10,15,10z M15,12
		c1.1,0,2,0.9,2,2c0,0.4-0.2,0.8-0.6,1.5c-0.3,0.7-0.8,1.4-1.1,2.5h-0.8c-0.3-1.1-0.7-1.9-1.1-2.5c-0.4-0.7-0.6-1-0.6-1.5
		C13,12.9,13.9,12,15,12z"/>
</g>
</svg>
