<?xml version="1.0" encoding="UTF-8"?>
<svg width="149px" height="25px" viewBox="0 0 149 25" version="1.1" xmlns="http://www.w3.org/2000/svg" xmlns:xlink="http://www.w3.org/1999/xlink">
    <!-- Generator: Sketch 46.2 (44496) - http://www.bohemiancoding.com/sketch -->
    <title>Logo</title>
    <desc>Created with Sketch.</desc>
    <defs></defs>
    <g id="Symbols" stroke="none" stroke-width="1" fill="none" fill-rule="evenodd">
        <g id="Footer" transform="translate(-80.000000, -100.000000)" fill="#FFFFFF">
            <g id="Group" transform="translate(80.000000, 100.000000)">
                <g id="Logo">
                    <path d="M6.66966196,23.6359039 L6.97560976,21.3906448 L5.50706033,21.1782554 C5.04813864,21.1175727 5.01754386,21.05689 5.07873342,20.5714286 L6.88382542,7.82806574 L0.367137356,7.82806574 L0.0611895593,10.1340076 L1.56033376,10.6498104 C1.83568678,10.7408344 1.92747112,10.9532238 1.86628156,11.2869785 L0.734274711,19.3881163 L0,23.4841972 L0.0611895593,23.6359039 L6.66966196,23.6359039 Z M25.6996149,23.6359039 L26.0055627,21.3906448 L24.4758237,21.1782554 C24.0474968,21.1175727 24.0474968,21.05689 24.1086864,20.5714286 L25.2100984,12.8040455 C25.3018828,12.2275601 25.3324775,11.6207332 25.3324775,11.1352718 C25.2406932,8.7079646 24.0474968,7.52465234 21.7222935,7.52465234 C19.3359007,7.52465234 17.6837826,8.89001264 15.970475,10.346397 L15.8786906,10.3160556 L16.2152332,7.82806574 L10.1574668,7.82806574 L9.82092426,10.1340076 L11.3200685,10.6801517 C11.5954215,10.7711757 11.656611,10.9835651 11.5954215,11.3173198 L10.3104407,20.5714286 C10.2492512,21.0265487 10.1574668,21.1175727 9.7597347,21.1782554 L8.4135644,21.3603034 L8.1076166,23.6359039 L16.4905862,23.6359039 L16.796534,21.3906448 L15.266795,21.1782554 C14.8078733,21.1175727 14.8078733,21.05689 14.8690629,20.5714286 L15.8175011,13.6232617 C16.8577236,12.7130215 18.4792469,11.4386852 19.7948224,11.4386852 C20.7126658,11.4386852 20.7738554,12.2579014 20.5902867,13.5322377 L19.7030381,19.8432364 L19.0299529,23.5448799 L19.0911425,23.6359039 L25.6996149,23.6359039 Z M44.6683783,23.6359039 L44.9743261,21.3906448 L43.4445871,21.1782554 C43.0162602,21.1175727 43.0162602,21.05689 43.0774497,20.5714286 L44.1788618,12.8040455 C44.2706461,12.2275601 44.3012409,11.6207332 44.3012409,11.1352718 C44.2094566,8.7079646 43.0162602,7.52465234 40.6910569,7.52465234 C38.3046641,7.52465234 36.652546,8.89001264 34.9392383,10.346397 L34.847454,10.3160556 L35.1839966,7.82806574 L29.1262302,7.82806574 L28.7896876,10.1340076 L30.2888318,10.6801517 C30.5641849,10.7711757 30.6253744,10.9835651 30.5641849,11.3173198 L29.2792041,20.5714286 C29.2180145,21.0265487 29.1262302,21.1175727 28.7284981,21.1782554 L27.3823278,21.3603034 L27.07638,23.6359039 L35.4593496,23.6359039 L35.7652974,21.3906448 L34.2355584,21.1782554 C33.7766367,21.1175727 33.7766367,21.05689 33.8378263,20.5714286 L34.7862644,13.6232617 C35.8264869,12.7130215 37.4480103,11.4386852 38.7635858,11.4386852 C39.6814292,11.4386852 39.7426187,12.2579014 39.5590501,13.5322377 L38.6718015,19.8432364 L37.9987163,23.5448799 L38.0599059,23.6359039 L44.6683783,23.6359039 Z M53.9997861,24 C60.0881472,24 63.1170304,19.8735777 63.1170304,13.9570164 C63.1170304,10.437421 61.4037227,7.52465234 56.2943945,7.52465234 C50.3284125,7.52465234 47.0241763,11.6207332 47.0241763,17.4766119 C47.0241763,21.3906448 49.1964056,24 53.9997861,24 Z M54.3669234,20.8141593 C52.7148053,20.8141593 51.7357724,19.8128951 51.7357724,17.4766119 C51.7357724,12.4399494 53.724433,10.8015171 55.7742833,10.8015171 C57.3958066,10.8015171 58.31365,11.7420986 58.31365,14.0176991 C58.31365,19.0240202 56.4779632,20.8141593 54.3669234,20.8141593 Z M74.559478,23.6359039 L82.2387677,8.76864728 L81.8716303,7.82806574 L75.8750535,7.82806574 L75.5385109,10.0429836 L77.5271716,10.3160556 L73.1215233,19.2060683 L73.029739,19.2060683 L71.6835687,11.5600506 L71.1634574,8.1011378 L70.8881044,7.82806574 L65.0445015,7.82806574 L64.7385537,10.0733249 L65.9623449,10.346397 C66.3294822,10.437421 66.4212666,10.4981037 66.5130509,10.8621997 L69.2665811,23.6359039 L74.559478,23.6359039 Z M98.7905434,23.6359039 L99.127086,21.3906448 L97.6891314,21.1782554 C97.2608045,21.1175727 97.2302097,21.05689 97.2913992,20.6017699 L98.5151904,11.8027813 C98.6987591,10.4677623 99.0047069,9.13274336 99.2800599,7.82806574 L95.3639281,7.82806574 L94.7826273,9.25410872 C93.7424048,8.22250316 92.3350449,7.52465234 90.5911425,7.52465234 C84.8393239,7.52465234 82.881258,13.3501896 82.881258,17.931732 C82.881258,22.0278129 84.5333761,24 87.5316645,24 C89.7038939,24 91.2642276,22.9380531 93.0999144,21.147914 L93.2528883,21.1782554 L92.885751,23.6359039 L98.7905434,23.6359039 Z M93.3140779,17.8103666 C92.1514763,18.9633375 90.4993582,20.2073325 89.3367565,20.2073325 C88.1435601,20.2073325 87.5928541,19.357775 87.5928541,17.5676359 C87.5928541,15.3223767 88.4189131,10.9835651 91.4172015,10.9835651 C92.4268293,10.9835651 93.4670518,11.5297092 94.1095421,12.1061947 L93.3140779,17.8103666 Z M117.33098,23.6359039 L117.636928,21.3906448 L116.198973,21.1782554 C115.770646,21.1175727 115.740051,21.05689 115.801241,20.6017699 L118.585366,0.728192162 L112.282841,0.728192162 L111.915704,3.03413401 L113.445443,3.54993679 C113.751391,3.64096081 113.781985,3.82300885 113.751391,4.15676359 L113.139495,8.82932996 C112.129867,8.07079646 110.844887,7.52465234 109.070389,7.52465234 C103.287976,7.52465234 101.3911,13.6232617 101.3911,17.9924147 C101.3911,22.0884956 103.104407,24 106.072101,24 C108.24433,24 109.804664,22.8773704 111.609756,21.147914 L111.76273,21.2085967 L111.395593,23.6359039 L117.33098,23.6359039 Z M111.82392,17.7800253 C110.661318,18.9633375 109.039795,20.2073325 107.846598,20.2073325 C106.683997,20.2073325 106.102696,19.3881163 106.102696,17.7496839 C106.102696,15.2616941 106.89816,10.9835651 110.018828,10.9835651 C110.936671,10.9835651 112.007488,11.4690265 112.649979,12.0151707 L111.82392,17.7800253 Z M125.102054,5.40075853 C127.090715,5.40075853 128.283911,4.15676359 128.283911,2.24525917 C128.283911,0.788874842 127.396662,0 125.897518,0 C123.908858,0 122.746256,1.18331226 122.746256,3.12515803 C122.746256,4.55120101 123.60291,5.40075853 125.102054,5.40075853 Z M127.243688,23.6359039 L127.549636,21.3906448 L126.081087,21.1782554 C125.622165,21.1175727 125.59157,21.05689 125.65276,20.5714286 L127.457852,7.82806574 L120.941164,7.82806574 L120.635216,10.1340076 L122.13436,10.6498104 C122.409713,10.7408344 122.501498,10.9532238 122.440308,11.2869785 L121.308301,19.3881163 L120.574027,23.4841972 L120.635216,23.6359039 L127.243688,23.6359039 Z M142.388104,12.8040455 L143,8.4045512 C142.204536,8.07079646 139.971117,7.52465234 137.584724,7.52465234 C133.821566,7.52465234 130.547925,9.13274336 130.547925,12.8647282 C130.547925,16.0505689 132.934318,16.9001264 135.137142,17.5676359 C136.881044,18.0834387 138.013051,18.3565107 138.013051,19.5701643 C138.013051,20.6017699 137.064613,21.2389381 135.3819,21.2389381 C134.372272,21.2389381 133.668592,21.1175727 133.209671,20.965866 C132.934318,20.874842 132.873128,20.6927939 132.873128,20.4804046 L132.781344,18.7206068 L129.660676,18.5385588 L129.079375,22.9380531 C129.568892,23.3021492 132.047069,24 134.922978,24 C138.808515,24 142.173941,22.391909 142.173941,18.4475348 C142.173941,15.2313527 139.359221,14.3817952 137.186992,13.653603 C135.840822,13.1984829 134.770004,12.8343869 134.770004,11.863464 C134.770004,10.8015171 135.779632,10.4070796 137.064613,10.4070796 C137.829482,10.4070796 138.410783,10.4677623 138.77792,10.5587863 C139.114463,10.6498104 139.145058,10.8015171 139.145058,11.0442478 L139.206247,12.6219975 L142.388104,12.8040455 Z" id="innovadis"></path>
                    <path d="M149,22.1794872 C149,20.7371795 148.33526,20 146.83237,20 C144.953757,20 144,21.025641 144,22.8525641 C144,24.2948718 144.693642,25 146.196532,25 C148.046243,25 149,23.974359 149,22.1794872 Z" id="cirkel"></path>
                    <path d="M4.55248619,6 C6.70718232,6 8,4.61797753 8,2.49438202 C8,0.876404494 7.03867403,0 5.41436464,0 C3.25966851,0 2,1.31460674 2,3.47191011 C2,5.05617978 2.9281768,6 4.55248619,6 Z" id="cirkel"></path>
                </g>
            </g>
        </g>
    </g>
</svg>