<?xml version="1.0" encoding="UTF-8"?>
<svg width="230px" height="59px" viewBox="0 0 230 59" version="1.1" xmlns="http://www.w3.org/2000/svg" xmlns:xlink="http://www.w3.org/1999/xlink">
    <!-- Generator: Sketch 48.1 (47250) - http://www.bohemiancoding.com/sketch -->
    <title>Pentair_Schroff_Logo</title>
    <desc>Created with Sketch.</desc>
    <defs></defs>
    <g id="InnovadisSmartIndustry2" stroke="none" stroke-width="1" fill="none" fill-rule="evenodd" transform="translate(-605.000000, -2747.000000)">
        <g id="Group-2" transform="translate(605.000000, 2706.000000)">
            <g id="Pentair_Schroff_Logo" transform="translate(0.000000, 41.000000)">
                <path d="M7.81168204,14.5819484 L7.81168204,29.4601729 L15.2468139,22.0218587 L15.2468139,36.9016755 L22.6851285,29.4601729 L7.81168204,14.5819484 Z M0.368589744,36.9002343 L7.80849779,29.46192 L0.368589744,22.0204175 L0.368589744,36.9002343 Z M7.80849779,29.46192 L7.81232006,29.4630258 L7.81232006,29.4579393 L7.80849779,29.4605194 L7.80849779,29.46192 Z M7.81232006,44.3369599 L15.2474519,36.9002343 L7.81232006,29.4635123 L7.81232006,44.3369599 Z" id="path312" fill="#64A70B"></path>
                <path d="M212.138808,21.940662 L212.138808,29.613016 L219.868482,29.613016 C221.938216,29.613016 223.644953,27.8330409 223.644953,25.7585293 C223.644953,24.8398857 223.312204,23.728595 222.692874,23.1013069 C221.732834,22.0632513 220.530797,21.940662 219.451349,21.940662 L212.138808,21.940662 Z M206.201848,41.9438726 L206.201848,16.9143843 L219.245967,16.9143843 C223.108415,16.9143843 225.639863,18.0384098 227.381627,19.8629622 C228.7986,21.3595434 229.63127,23.5948596 229.63127,25.7585293 C229.63127,29.2484255 227.469193,32.2336228 224.144875,33.6872117 L229.349469,41.9438726 L222.536861,41.9438726 L218.203138,34.644067 L212.138808,34.644067 L212.138808,41.9438726 L206.201848,41.9438726 Z M193.637439,16.9148561 L199.579175,16.9148561 L199.579175,41.9443444 L193.637439,41.9443444 L193.637439,16.9148561 Z M171.22155,33.6158859 L175.332365,24.0186752 L175.582328,24.0186752 L179.69792,33.6158859 L171.22155,33.6158859 Z M178.159946,16.9147013 L173.047695,16.9147013 L161.412588,41.9425973 L167.685484,41.9425973 L169.223458,38.3141888 L181.73422,38.3078122 L183.063631,41.9425862 L189.591259,41.9425973 L178.159946,16.9146902 L178.159946,16.9147013 Z M138.403484,16.9147013 L165.23364,16.9147013 L162.8423,22.063572 L154.192391,22.063572 L154.192391,41.9441896 L148.250654,41.9441896 L148.250654,22.063572 L138.403484,22.063572 L138.403484,16.9147013 Z M128.286127,16.9147013 L128.286127,31.6798867 L114.414123,16.9147013 L109.301875,16.9147013 L109.301875,41.9441896 L115.283412,41.9441896 L115.283412,27.2554276 L115.324809,27.2554276 L129.115612,41.9441896 L134.272441,41.9441896 L134.272441,16.9147013 L128.286127,16.9147013 Z M98.7287016,31.9436938 L88.7159538,31.9436938 L88.7159538,36.8362324 L103.949215,36.8362324 L103.949215,41.9437067 L82.7789904,41.9437067 L82.7789904,16.9142184 L103.949215,16.9142184 L103.949215,22.0630854 L88.7159538,22.0630854 L88.7159538,26.8362194 L98.7287016,26.8362194 L98.7287016,31.9436938 Z M60.8693931,21.940662 L60.8693931,29.613016 L68.1787489,29.613016 C69.2120239,29.613016 70.3774457,29.4506228 71.2976853,28.5749641 C71.9615928,27.9142412 72.3723566,26.7153846 72.3723566,25.7983333 C72.3723566,24.8398857 71.9982085,23.728595 71.3788819,23.0646875 C70.4602346,22.1094245 69.2581971,21.940662 68.1787489,21.940662 L60.8693931,21.940662 Z M54.9292487,41.9438726 L54.9292487,16.9143843 L67.9701824,16.9143843 C71.7928266,16.9143843 74.3704484,17.9938325 76.1504199,19.9059508 C77.5673931,21.4853173 78.350709,23.6808332 78.350709,25.7585293 C78.350709,28.1243963 77.3604189,30.4854901 75.7810524,32.0250562 C74.0790929,33.6458191 71.6702373,34.644067 67.9701824,34.644067 L60.8693931,34.644067 L60.8693931,41.9438726 L54.9292487,41.9438726 Z M15.2463425,0.368589744 L15.2463425,22.021221 L22.686249,14.5813144 L22.686249,29.4595353 L30.124567,22.021221 L30.124567,36.8994455 L22.686249,29.4595353 L22.686249,44.3377598 L15.2463425,36.8994455 L15.2463425,58.4915764 L44.279976,29.4595353 L15.2463425,0.368589744 Z" id="path350" fill="#0C3471" fill-rule="nonzero"></path>
            </g>
        </g>
    </g>
</svg>